<?xml version="1.0" encoding="UTF-8" standalone="no"?>
<svg
   xmlns:svg="http://www.w3.org/2000/svg"
   xmlns="http://www.w3.org/2000/svg"
   height="24"
   viewBox="0 0 24 24"
   width="24"
   version="1.1"
   id="svg6">
  <metadata
     id="metadata12">
  </metadata>
  <defs
     id="defs10" />
  <path
     d="M12 5c-7.633 0-9.927 6.617-9.948 6.684L1.946 12l.105.316C2.073 12.383 4.367 19 12 19s9.927-6.617 9.948-6.684l.106-.316-.105-.316C21.927 11.617 19.633 5 12 5zm0 11c-2.206 0-4-1.794-4-4s1.794-4 4-4 4 1.794 4 4-1.794 4-4 4z"
     id="path2" />
  <path
     d="M12 10c-1.084 0-2 .916-2 2s.916 2 2 2 2-.916 2-2-.916-2-2-2z"
     id="path4" />
  <path
     style="fill:none;stroke:#000000;stroke-width:0.8602px;stroke-linecap:butt;stroke-linejoin:miter;stroke-opacity:1"
     d="M 2.1238686,5.3889672 21.764341,18.752853"
     id="path837" />
</svg>
